<svg width="161" height="53" viewBox="0 0 161 53" fill="none" xmlns="http://www.w3.org/2000/svg">
<path d="M155.495 32.13L159.951 35.1007C158.505 37.2309 155.046 40.8856 149.065 40.8856C141.639 40.8856 136.108 35.1398 136.108 27.8304C136.108 20.052 141.697 14.7751 148.44 14.7751C155.222 14.7751 158.544 20.1692 159.619 23.0812L160.205 24.5666L142.733 31.7978C144.062 34.4166 146.134 35.7456 149.065 35.7456C151.997 35.7456 154.029 34.2994 155.495 32.13ZM141.795 27.42L153.463 22.5731C152.818 20.951 150.902 19.7979 148.616 19.7979C145.704 19.7979 141.658 22.3777 141.795 27.42Z" fill="#FFFFFF"/>
<path d="M127.684 1.46582H133.313V39.6934H127.684V1.46582Z" fill="#FFFFFF"/>
<path d="M118.811 15.7913H124.245V39.0093C124.245 48.6444 118.557 52.6118 111.834 52.6118C105.502 52.6118 101.691 48.3512 100.264 44.892L105.248 42.8203C106.147 44.9506 108.316 47.4718 111.834 47.4718C116.154 47.4718 118.811 44.7943 118.811 39.7911V37.9149H118.616C117.326 39.4784 114.864 40.8855 111.737 40.8855C105.209 40.8855 99.2286 35.1983 99.2286 27.8694C99.2286 20.5014 105.209 14.7555 111.737 14.7555C114.844 14.7555 117.326 16.1431 118.616 17.6675H118.811V15.7913ZM119.202 27.8694C119.202 23.257 116.134 19.8955 112.225 19.8955C108.277 19.8955 104.955 23.257 104.955 27.8694C104.955 32.4231 108.277 35.726 112.225 35.726C116.134 35.7455 119.202 32.4231 119.202 27.8694Z" fill="#FFFFFF"/>
<path d="M68.3299 27.7717C68.3299 35.296 62.4667 40.8269 55.2746 40.8269C48.0825 40.8269 42.2194 35.2765 42.2194 27.7717C42.2194 20.2082 48.0825 14.6969 55.2746 14.6969C62.4667 14.6969 68.3299 20.2082 68.3299 27.7717ZM62.6231 27.7717C62.6231 23.0812 59.2225 19.8565 55.2746 19.8565C51.3268 19.8565 47.9262 23.0812 47.9262 27.7717C47.9262 32.4231 51.3268 35.6869 55.2746 35.6869C59.2225 35.6869 62.6231 32.4231 62.6231 27.7717Z" fill="#FFFFFF"/>
<path d="M96.8442 27.8304C96.8442 35.3547 90.9811 40.8856 83.789 40.8856C76.5969 40.8856 70.7337 35.3547 70.7337 27.8304C70.7337 20.2669 76.5969 14.7751 83.789 14.7751C90.9811 14.7751 96.8442 20.2474 96.8442 27.8304ZM91.1179 27.8304C91.1179 23.1399 87.7173 19.9152 83.7694 19.9152C79.8216 19.9152 76.421 23.1399 76.421 27.8304C76.421 32.4818 79.8216 35.7456 83.7694 35.7456C87.7368 35.7456 91.1179 32.4623 91.1179 27.8304Z" fill="#FFFFFF"/>
<path d="M20.7604 35.1592C12.5715 35.1592 6.16117 28.5534 6.16117 20.3646C6.16117 12.1758 12.5715 5.56998 20.7604 5.56998C25.1773 5.56998 28.402 7.30937 30.7863 9.53736L34.7146 5.60906C31.3922 2.42343 26.9557 0 20.7604 0C9.54224 0 0.1026 9.14648 0.1026 20.3646C0.1026 31.5827 9.54224 40.7292 20.7604 40.7292C26.8189 40.7292 31.3922 38.7358 34.9687 35.0224C38.6429 31.3482 39.7765 26.1887 39.7765 22.0063C39.7765 20.6969 39.6201 19.3483 39.4442 18.3516H20.7604V23.7848H34.0697C33.6788 27.1854 32.6039 29.5111 31.0208 31.0941C29.1056 33.029 26.0763 35.1592 20.7604 35.1592Z" fill="#FFFFFF"/>
</svg>
